<?xml version="1.0" standalone="no"?>
<!DOCTYPE svg PUBLIC "-//W3C//DTD SVG 20010904//EN"
 "http://www.w3.org/TR/2001/REC-SVG-20010904/DTD/svg10.dtd">
<svg version="1.0" xmlns="http://www.w3.org/2000/svg"
 width="68.000000pt" height="68.000000pt" viewBox="0 0 68.000000 68.000000"
 preserveAspectRatio="xMidYMid meet">

<g transform="translate(0.000000,68.000000) scale(0.100000,-0.100000)"
fill="#000000" stroke="none">
<path d="M330 585 c0 -8 -9 -15 -20 -15 -11 0 -20 -4 -20 -10 0 -5 9 -10 20
-10 28 0 25 -30 -5 -59 -14 -13 -25 -32 -25 -43 0 -16 -4 -18 -22 -11 -13 4
-45 8 -71 8 -42 0 -53 -5 -78 -33 -47 -52 -41 -94 21 -154 27 -26 50 -55 50
-63 0 -12 6 -11 38 2 51 23 193 23 245 0 31 -13 37 -14 37 -2 0 8 23 37 50 63
62 60 68 102 21 154 -25 28 -36 33 -78 33 -26 0 -58 -4 -70 -8 -19 -7 -23 -5
-23 11 0 10 -11 29 -25 42 -31 29 -33 60 -5 60 11 0 20 5 20 10 0 6 -9 10 -20
10 -11 0 -20 7 -20 15 0 8 -4 15 -10 15 -5 0 -10 -7 -10 -15z m-71 -170 c16
-8 40 -28 55 -45 l26 -32 26 32 c36 42 74 60 129 60 59 0 95 -32 95 -85 0 -29
-8 -44 -47 -81 -35 -34 -51 -44 -67 -39 -100 29 -172 29 -272 0 -16 -5 -32 5
-67 39 -57 55 -64 100 -22 141 29 29 98 34 144 10z"/>
<path d="M130 390 c-35 -35 -19 -89 36 -125 22 -14 33 -15 95 -3 79 14 87 28
45 83 -47 61 -137 84 -176 45z"/>
<path d="M432 393 c-39 -19 -82 -71 -82 -99 0 -16 12 -22 69 -32 62 -12 73
-11 95 3 110 73 37 187 -82 128z"/>
<path d="M290 194 c-50 -9 -110 -36 -110 -49 0 -12 7 -11 43 1 24 9 74 16 117
16 43 0 93 -7 118 -16 34 -12 42 -13 42 -2 0 29 -141 62 -210 50z"/>
<path d="M233 127 c-50 -19 -49 -25 13 -43 66 -19 158 -15 214 9 l35 15 -30
13 c-41 17 -192 22 -232 6z"/>
</g>
</svg>
