<?xml version="1.0" standalone="no"?>
<!DOCTYPE svg PUBLIC "-//W3C//DTD SVG 20010904//EN"
 "http://www.w3.org/TR/2001/REC-SVG-20010904/DTD/svg10.dtd">
<svg version="1.0" xmlns="http://www.w3.org/2000/svg"
 width="68.000000pt" height="68.000000pt" viewBox="0 0 68.000000 68.000000"
 preserveAspectRatio="xMidYMid meet">

<g transform="translate(0.000000,68.000000) scale(0.100000,-0.100000)"
fill="#000000" stroke="none">
<path d="M286 528 c-9 -12 -16 -37 -16 -54 0 -17 -7 -37 -15 -44 -21 -18 -29
-76 -15 -111 12 -28 11 -32 -18 -62 -39 -40 -62 -95 -62 -147 l0 -40 180 0
180 0 0 40 c0 52 -23 107 -62 147 -29 30 -30 34 -18 62 14 35 6 93 -15 111 -8
7 -15 27 -15 44 0 50 -24 76 -70 76 -29 0 -43 -6 -54 -22z"/>
</g>
</svg>
